# xmcd CD database file
#
# Track frame offsets:
#	150
#	27352
#	48859
#	71454
#	86814
#	105661
#	130459
#	160866
#	180249
#	198914
#
# Disc length: 2952 seconds
#
# Revision: 1
# Processed by: cddbd v1.5.2PL0 Copyright (c) Steve Scherf et al.
# Submitted via: CDex 1.81
#
DISCID=7d0b860a
DTITLE=The Great Jazz Trio - Blue Minor
DYEAR=2008
DGENRE=Jazz
TTITLE0=Nica's Dream
TTITLE1=Dear Old Stockholm
TTITLE2=Lonely Moments
TTITLE3=I Let A Song Go Out Of My Heart
TTITLE4=Blue Minor
TTITLE5=Comin' Home Baby
TTITLE6=Wave
TTITLE7=My Ideal
TTITLE8=I Got Rhythm
TTITLE9=Misty
EXTD=YEAR: 2008
EXTT0=
EXTT1=
EXTT2=
EXTT3=
EXTT4=
EXTT5=
EXTT6=
EXTT7=
EXTT8=
EXTT9=
PLAYORDER=
